HIERARCHY
ROOT Hips
{
	OFFSET 0.000000 0.000000 0.000000
	CHANNELS 6 Xposition Yposition Zposition Xrotation Yrotation Zrotation
	JOINT LeftUpLeg_virtual
	{
		OFFSET 0.000000 0.000000 0.000000
		CHANNELS 3 Xrotation Yrotation Zrotation
		JOINT LeftUpLeg
		{
			OFFSET 11.394100 -6.187798 -0.413800
			CHANNELS 3 Xrotation Yrotation Zrotation
			JOINT LeftLeg
			{
				OFFSET 0.430247 -32.302673 3.732800
				CHANNELS 3 Xrotation Yrotation Zrotation
				JOINT LeftFoot
				{
					OFFSET -0.430247 -48.264931 -6.423300
					CHANNELS 3 Xrotation Yrotation Zrotation
					JOINT LeftToeBase
					{
						OFFSET 4.230900 -16.068199 23.438400
						CHANNELS 3 Xrotation Yrotation Zrotation
						JOINT LeftToe_End
						{
							OFFSET 4.510700 0.695400 19.974600
							CHANNELS 3 Xrotation Yrotation Zrotation
							End Site
							{
								OFFSET 0 0 0
							}
						}
					}
				}
			}
		}
	}
	JOINT RightUpLeg_virtual
	{
		OFFSET 0.000000 0.000000 0.000000
		CHANNELS 3 Xrotation Yrotation Zrotation
		JOINT RightUpLeg
		{
			OFFSET -11.333700 -6.187798 -0.413800
			CHANNELS 3 Xrotation Yrotation Zrotation
			JOINT RightLeg
			{
				OFFSET -0.430392 -32.302628 3.733000
				CHANNELS 3 Xrotation Yrotation Zrotation
				JOINT RightFoot
				{
					OFFSET 0.430392 -48.264973 -6.423500
					CHANNELS 3 Xrotation Yrotation Zrotation
					JOINT RightToeBase
					{
						OFFSET -4.230900 -16.068199 23.438400
						CHANNELS 3 Xrotation Yrotation Zrotation
						JOINT RightToe_End
						{
							OFFSET -4.510700 0.695400 19.974600
							CHANNELS 3 Xrotation Yrotation Zrotation
							End Site
							{
								OFFSET 0 0 0
							}
						}
					}
				}
			}
		}
	}
	JOINT Spine_virtual
	{
		OFFSET 0.000000 0.000000 0.000000
		CHANNELS 3 Xrotation Yrotation Zrotation
		JOINT Spine
		{
			OFFSET -0.002400 12.777504 0.315300
			CHANNELS 3 Xrotation Yrotation Zrotation
			JOINT Spine1
			{
				OFFSET -0.002067 5.816869 0.032633
				CHANNELS 3 Xrotation Yrotation Zrotation
				JOINT Spine1_split
				{
					OFFSET -0.002067 5.816869 0.032633
					CHANNELS 3 Xrotation Yrotation Zrotation
					JOINT Spine2
					{
						OFFSET -0.002067 5.816869 0.032633
						CHANNELS 3 Xrotation Yrotation Zrotation
						JOINT Neck_virtual
						{
							OFFSET 0.000000 0.000000 0.000000
							CHANNELS 3 Xrotation Yrotation Zrotation
							JOINT Neck
							{
								OFFSET -0.003700 21.199493 -0.826900
								CHANNELS 3 Xrotation Yrotation Zrotation
								JOINT Head
								{
									OFFSET 0.000000 20.442200 4.834800
									CHANNELS 3 Xrotation Yrotation Zrotation
									JOINT HeadTop_End
									{
										OFFSET 0.000000 34.668396 4.968400
										CHANNELS 3 Xrotation Yrotation Zrotation
										End Site
										{
											OFFSET 0 0 0
										}
									}
								}
							}
						}
						JOINT LeftShoulder_virtual
						{
							OFFSET 0.000000 0.000000 0.000000
							CHANNELS 3 Xrotation Yrotation Zrotation
							JOINT LeftShoulder
							{
								OFFSET 3.288150 8.794197 -1.372250
								CHANNELS 3 Xrotation Yrotation Zrotation
								JOINT LeftShoulder_split
								{
									OFFSET 3.288150 8.794197 -1.372250
									CHANNELS 3 Xrotation Yrotation Zrotation
									JOINT LeftArm
									{
										OFFSET 11.953299 -2.279007 -0.146200
										CHANNELS 3 Xrotation Yrotation Zrotation
										JOINT LeftForeArm
										{
											OFFSET 18.448900 0.000000 0.000000
											CHANNELS 3 Xrotation Yrotation Zrotation
											JOINT LeftHand
											{
												OFFSET 29.527798 0.000000 0.000000
												CHANNELS 3 Xrotation Yrotation Zrotation
												End Site
												{
													OFFSET 0 0 0
												}
											}
										}
									}
								}
							}
						}
						JOINT RightShoulder_virtual
						{
							OFFSET 0.000000 0.000000 0.000000
							CHANNELS 3 Xrotation Yrotation Zrotation
							JOINT RightShoulder
							{
								OFFSET -3.249400 8.794197 -1.372250
								CHANNELS 3 Xrotation Yrotation Zrotation
								JOINT RightShoulder_split
								{
									OFFSET -3.249400 8.794197 -1.372250
									CHANNELS 3 Xrotation Yrotation Zrotation
									JOINT RightArm
									{
										OFFSET -11.953299 -2.279007 -0.146200
										CHANNELS 3 Xrotation Yrotation Zrotation
										JOINT RightForeArm
										{
											OFFSET -18.448900 0.000000 0.000000
											CHANNELS 3 Xrotation Yrotation Zrotation
											JOINT RightHand
											{
												OFFSET -29.527802 0.000000 0.000000
												CHANNELS 3 Xrotation Yrotation Zrotation
												End Site
												{
													OFFSET 0 0 0
												}
											}
										}
									}
								}
							}
						}
					}
				}
			}
		}
	}
}
MOTION
Frames: 4
Frame Time: 0.03333333
2.464825 81.101997 0.739540 0.000000 0.000000 0.000000 -2.726973 -38.847029 1.586367 -42.200563 4.013807 18.769681 54.322810 -2.203715 4.334278 -10.850887 -8.178042 -14.719438 -1.641756 0.901457 -0.420210 0.000000 0.000000 0.000000 -4.297979 -38.964959 2.232946 -22.820748 -12.514982 -32.086921 52.968575 3.848639 -7.069192 -19.477032 -8.580988 34.482207 -0.729168 1.337038 -2.109298 0.000000 0.000000 0.000000 -0.403143 -41.433263 2.445650 11.073331 7.378237 -3.114845 1.094138 1.897153 -1.528301 2.259264 -4.381487 -0.635546 0.000000 0.000000 0.000000 1.203910 1.793109 -0.546195 -0.885851 8.503056 4.846705 10.109839 6.490061 -4.147234 0.000000 0.000000 0.000000 1.611434 1.332364 -1.901069 1.541720 0.522303 -1.742212 -7.435472 1.932366 -6.291960 -46.515118 -5.886657 -47.795178 -166.979192 -77.775965 -164.440766 0.000000 0.000000 0.000000 2.305085 2.701537 0.365829 6.612963 10.851638 -11.120948 5.366725 13.480237 2.254852 -48.719353 31.987504 85.637608 177.114182 67.952705 179.958218 0.000000 0.000000 0.000000 
2.604914 81.297897 -0.191559 0.000000 0.000000 0.000000 -4.013400 -38.988776 1.957009 -41.064262 4.796727 18.067572 53.417410 -2.325345 4.033674 -10.124888 -7.680867 -13.939763 -1.770730 0.877796 -0.480468 0.000000 0.000000 0.000000 -5.775733 -39.873811 2.289949 -23.365756 -12.846830 -32.624723 55.723077 3.073399 -6.835343 -20.257827 -9.632749 32.499188 1.970412 1.241148 -2.317905 0.000000 0.000000 0.000000 -2.725489 -42.988145 2.412872 9.919601 7.770675 -2.594806 1.042359 2.415221 -1.661730 0.484763 -3.072273 -0.481329 0.000000 0.000000 0.000000 1.643304 2.314369 -0.904127 0.569858 7.957777 5.158589 8.568856 7.998505 -5.142005 0.000000 0.000000 0.000000 2.301650 1.903998 -1.806461 1.449892 0.736921 -1.887743 -5.283190 1.265993 -7.999554 -45.078801 -6.520552 -51.548309 -167.032959 -80.362503 -164.750460 0.000000 0.000000 0.000000 2.864700 2.972232 -0.199290 6.497494 11.424028 -8.349797 3.165891 11.417938 1.957440 -47.010584 29.512196 80.711751 179.244900 68.369210 178.732882 0.000000 0.000000 0.000000 
2.910424 81.677544 -1.014889 0.000000 0.000000 0.000000 -5.825264 -39.930553 2.900624 -38.034356 6.097557 16.510949 50.776945 -2.613668 3.611031 -9.459947 -7.555574 -13.838482 -1.755802 0.732923 -0.343833 0.000000 0.000000 0.000000 -7.517422 -41.008466 2.984900 -23.513094 -10.706899 -33.212054 59.431136 1.890305 -6.831056 -20.620584 -11.000281 30.911749 1.027683 1.138659 -2.066304 0.000000 0.000000 0.000000 -5.737960 -44.191529 2.584573 8.463651 8.714233 -1.524295 1.303995 3.696605 -1.840350 -0.009549 -1.058406 0.171986 0.000000 0.000000 0.000000 2.269984 3.497695 -1.329593 2.106506 6.857846 4.573134 5.967635 9.643676 -7.798075 0.000000 0.000000 0.000000 2.998750 3.260688 -1.743950 1.133928 0.428210 -2.620810 -3.990979 -0.874388 -8.141183 -40.796098 -8.892442 -57.831485 -165.529293 -84.399473 -163.684555 0.000000 0.000000 0.000000 3.823486 4.001090 -0.982616 6.334847 12.463231 -4.350412 2.214533 9.398222 1.747361 -45.818828 25.811797 72.706168 -178.971488 68.450257 177.836283 0.000000 0.000000 0.000000 
3.252454 82.217003 -1.435146 0.000000 0.000000 0.000000 -7.568352 -42.228433 4.148631 -33.560326 7.613947 14.466030 46.915183 -2.815032 3.033868 -9.101727 -7.380624 -14.511526 -1.933631 0.491714 0.065586 0.000000 0.000000 0.000000 -8.978568 -42.931062 4.213094 -23.699339 -6.362055 -33.676716 62.428195 0.542283 -7.003837 -20.866165 -12.222194 29.185101 -1.694176 0.974106 -1.272313 0.000000 0.000000 0.000000 -8.696809 -45.805205 2.926843 7.259690 9.660926 0.114526 2.032959 5.244910 -1.882324 1.063246 0.324156 0.934819 0.000000 0.000000 0.000000 3.216462 4.900084 -1.502469 3.262782 5.596688 3.534361 2.415020 11.357489 -11.282136 0.000000 0.000000 0.000000 3.810436 4.868658 -1.534839 0.574640 -0.260251 -3.332696 -3.093667 -1.764398 -7.394480 -34.756220 -12.146324 -64.323942 -124.976110 -89.018620 -123.522810 0.000000 0.000000 0.000000 5.154311 5.278861 -1.689069 6.095569 13.965679 -0.021181 1.844650 7.840303 1.961882 -46.489358 24.346078 64.584589 -178.678828 69.318743 178.262938 0.000000 0.000000 0.000000 
